<svg xmlns="http://www.w3.org/2000/svg" viewBox="0 0 24 24" fill="currentColor"><path d="M12 .5a12 12 0 0 0-3.79 23.39c.6.11.82-.26.82-.58v-2.17c-3.34.73-4.04-1.61-4.04-1.61-.55-1.39-1.34-1.76-1.34-1.76-1.09-.75.08-.74.08-.74 1.2.09 1.83 1.24 1.83 1.24 1.07 1.84 2.81 1.31 3.49 1 .11-.78.42-1.31.77-1.61-2.67-.3-5.47-1.33-5.47-5.91 0-1.31.47-2.38 1.24-3.22-.12-.3-.54-1.53.12-3.19 0 0 1-.32 3.3 1.23a11.5 11.5 0 0 1 6 0c2.3-1.55 3.29-1.23 3.29-1.23.67 1.66.25 2.89.13 3.19.78.84 1.24 1.9 1.24 3.22 0 4.59-2.8 5.61-5.48 5.9.43.37.81 1.1.81 2.23v3.31c0 .32.22.69.82.57A12 12 0 0 0 12 .5Z"/></svg>